<svg
    xmlns="http://www.w3.org/2000/svg" width="26" height="24" fill="none">
    <path fill="#bdff2f" fill-opacity=".8" d="M21.51 13.183c1.204 0 1.797 1.464.933 2.302l-7.963 7.722a2.81 2.81 0 0 1-1.957.793H3.307c-1.204 0-1.797-1.464-.933-2.302l7.962-7.722a2.81 2.81 0 0 1 1.957-.793h9.217Z"/>
    <path fill="#bdff2f" fill-opacity=".8" d="M21.771 6.48c1.204 0 1.798 1.463.933 2.302L14.86 16.39c-.6.581-1.402.907-2.238.907H3.568c-1.203 0-1.797-1.464-.933-2.302l7.963-7.723a2.81 2.81 0 0 1 1.957-.793h9.216Z"/>
    <path fill="#bdff2f" fill-opacity=".8" d="M21.51 0c1.204 0 1.797 1.464.933 2.302l-7.963 7.722a2.81 2.81 0 0 1-1.957.793H3.307c-1.204 0-1.797-1.464-.933-2.302L10.336.793A2.81 2.81 0 0 1 12.293 0h9.217Z"/>
</svg>